<svg xmlns="http://www.w3.org/2000/svg" viewBox="0 0 128 128">
  <defs>
    <linearGradient id="g" x1="0" x2="1" y1="0" y2="1">
      <stop offset="0" stop-color="#FFB703"/>
      <stop offset="1" stop-color="#FB7185"/>
    </linearGradient>
  </defs>
  <!-- soft sun -->
  <circle cx="64" cy="64" r="30" fill="url(#g)"/>
  <!-- rays -->
  <g opacity="0.85" stroke="url(#g)" stroke-width="6" stroke-linecap="round">
    <line x1="64" y1="10" x2="64" y2="26"/>
    <line x1="64" y1="102" x2="64" y2="118"/>
    <line x1="10" y1="64" x2="26" y2="64"/>
    <line x1="102" y1="64" x2="118" y2="64"/>
    <line x1="24" y1="24" x2="36" y2="36"/>
    <line x1="92" y1="92" x2="104" y2="104"/>
    <line x1="24" y1="104" x2="36" y2="92"/>
    <line x1="92" y1="36" x2="104" y2="24"/>
  </g>
  <!-- heart -->
  <path d="M64 83c-11-7-23-16-23-28 0-7 5-12 12-12 5 0 9 3 11 7 2-4 6-7 11-7 7 0 12 5 12 12 0 12-12 21-23 28z"
        fill="#fff" opacity="0.9"/>
</svg>
